<svg xmlns="http://www.w3.org/2000/svg" version="1.1" xmlns:xlink="http://www.w3.org/1999/xlink" xmlns:svgjs="http://svgjs.dev/svgjs" width="1500" height="1500" viewBox="0 0 1500 1500"><rect width="1500" height="1500" fill="#003366"></rect><g transform="matrix(0.6666666666666666,0,0,0.6666666666666666,247.99505274880363,146.39247311827967)"><svg viewBox="0 0 206 248" data-background-color="#003366" preserveAspectRatio="xMidYMid meet" height="1805" width="1500" xmlns="http://www.w3.org/2000/svg" xmlns:xlink="http://www.w3.org/1999/xlink"><g id="tight-bounds" transform="matrix(1,0,0,1,0.4130191337464453,0.4000000000000057)"><svg viewBox="0 0 205.1739617325071 247.2" height="247.2" width="205.1739617325071"><g><svg viewBox="0 0 395.52 476.5348544932308" height="247.2" width="205.1739617325071"><g transform="matrix(1,0,0,1,0,256.5189059401761)"><svg viewBox="0 0 395.52 220.01594855305464" height="220.01594855305464" width="395.52"><g id="textblocktransform"><svg viewBox="0 0 395.52 220.01594855305464" height="220.01594855305464" width="395.52" id="textblock"><g><svg viewBox="0 0 395.52 220.01594855305464" height="220.01594855305464" width="395.52"><g transform="matrix(1,0,0,1,0,0)"><svg width="395.52" viewBox="2 -34.25 62.2 34.6" height="220.01594855305464" data-palette-color="#ffffff"><path d="M34.8-16.95L34.8-16.95Q34.8-9.2 30.33-4.42 25.85 0.35 18.4 0.35L18.4 0.35Q10.9 0.35 6.45-4.4 2-9.15 2-16.95L2-16.95Q2-24.7 6.48-29.48 10.95-34.25 18.4-34.25L18.4-34.25Q25.9-34.25 30.35-29.5 34.8-24.75 34.8-16.95ZM12.45-24.48Q10.25-21.7 10.25-16.95 10.25-12.2 12.45-9.43 14.65-6.65 18.4-6.65 22.15-6.65 24.35-9.43 26.55-12.2 26.55-16.95 26.55-21.7 24.35-24.48 22.15-27.25 18.4-27.25 14.65-27.25 12.45-24.48ZM51.65-10.9L51.65-10.9 47.75-10.9 47.75 0 40.05 0 40.05-33.7 51.65-33.7Q57.25-33.7 60.72-30.55 64.2-27.4 64.2-22.55L64.2-22.55Q64.2-17 60.57-13.95 56.95-10.9 51.65-10.9ZM50.75-27.55L50.75-27.55 47.75-27.55 47.75-17 50.3-17Q56.4-17 56.4-22.55L56.4-22.55Q56.4-27.55 50.75-27.55Z" opacity="1" transform="matrix(1,0,0,1,0,0)" fill="#ffffff" class="wordmark-text-0" data-fill-palette-color="primary" id="text-0"></path></svg></g></svg></g></svg></g></svg></g><g transform="matrix(1,0,0,1,81.65510400000001,0)"><svg viewBox="0 0 232.20979199999996 204.57842086956518" height="204.57842086956518" width="232.20979199999996"><g><svg xmlns="http://www.w3.org/2000/svg" xmlns:xlink="http://www.w3.org/1999/xlink" version="1.1" x="0" y="0" viewBox="6.3 11.5 87.4 77" style="enable-background:new 0 0 100 100;" xml:space="preserve" height="204.57842086956518" width="232.20979199999996" class="icon-icon-0" data-fill-palette-color="accent" id="icon-0"><path d="M72.3 12.3L71.9 11.5H28.2L6.3 50 28.1 88.5H71.8L93.7 50zM33.3 25.3L9.9 47.7 28.5 14.9zM70.7 14.8L77.1 50.5 36.9 25.8zM35.5 27.3L76.5 52.5 35.5 75.8zM77 54.5L69.8 85.3 37.2 77.2zM33.5 75L9.9 50.5 33.5 27.8zM33.2 77.6L28.6 85.3 11.5 55.1zM35 78.6L66.4 86.5H30.2zM79.3 53.3L90.9 50.8 72.1 84zM90.7 48.9L79.3 51.4 73.4 18.3zM35 24.3L30 13.5H68.2z" fill="#ff9966" data-fill-palette-color="accent"></path></svg></g></svg></g><g></g></svg></g><defs></defs></svg><rect width="205.1739617325071" height="247.2" fill="none" stroke="none" visibility="hidden"></rect></g></svg></g></svg>